<?xml version="1.0" standalone="no"?>
<!DOCTYPE svg PUBLIC "-//W3C//DTD SVG 20010904//EN"
 "http://www.w3.org/TR/2001/REC-SVG-20010904/DTD/svg10.dtd">
<svg version="1.0" xmlns="http://www.w3.org/2000/svg"
 width="371.000000pt" height="612.000000pt" viewBox="0 0 371.000000 612.000000"
 preserveAspectRatio="xMidYMid meet">
<metadata>
Created by potrace 1.16, written by Peter Selinger 2001-2019
</metadata>
<g transform="translate(0.000000,612.000000) scale(0.100000,-0.100000)"
fill="#000000" stroke="none">
<path d="M2020 6113 c-19 -2 -66 -8 -105 -14 -67 -11 -69 -12 -47 -27 32 -21
27 -32 -17 -32 -30 0 -40 4 -44 19 -3 14 -11 18 -25 14 -14 -3 -18 -11 -15
-24 5 -16 0 -19 -30 -19 -20 0 -38 4 -42 9 -9 15 -125 -28 -125 -46 0 -13 9
-14 55 -8 l54 6 14 -33 14 -33 -81 -6 c-76 -6 -82 -5 -102 17 -12 12 -24 28
-26 35 -3 8 -38 -4 -112 -39 -255 -122 -389 -229 -565 -452 -43 -54 -43 -54
16 9 l59 64 21 -34 c26 -41 75 -151 70 -155 -2 -2 -32 7 -67 21 -35 14 -84 25
-109 25 l-46 0 -52 -77 -53 -76 40 -35 c53 -45 70 -80 70 -145 0 -40 -6 -63
-23 -88 -48 -72 -140 -105 -209 -76 -39 17 -48 10 -48 -33 0 -10 -24 -43 -54
-73 -117 -121 -204 -259 -246 -392 -17 -53 -24 -101 -26 -198 -3 -102 -8 -138
-24 -175 l-21 -46 30 -60 c24 -48 31 -78 34 -139 2 -43 9 -83 16 -90 18 -18
13 -35 -16 -51 l-28 -15 29 -1 c27 0 28 -2 23 -33 -5 -31 -123 -255 -166 -316
-11 -15 -25 -49 -32 -75 -24 -98 30 -171 148 -197 54 -12 55 -13 49 -43 -3
-17 -25 -57 -47 -90 -35 -50 -41 -64 -36 -96 3 -21 19 -59 36 -83 30 -44 30
-46 16 -81 -24 -56 -19 -102 12 -129 116 -97 119 -102 125 -217 6 -97 25 -151
70 -197 115 -119 355 -109 742 31 l99 35 36 -18 c48 -25 129 -112 168 -181 45
-78 79 -189 97 -311 26 -176 23 -207 -29 -308 -47 -91 -122 -209 -159 -250
-11 -13 -43 -38 -71 -56 -201 -131 -450 -367 -509 -482 -27 -53 -21 -68 31
-91 76 -32 156 -44 349 -49 601 -18 1218 154 1619 451 174 130 348 334 441
519 39 77 100 250 109 313 l7 40 -119 98 c-138 114 -296 223 -376 262 -114 53
-182 191 -242 489 -30 148 -31 190 -5 233 21 35 33 41 123 68 70 21 121 52
215 133 81 70 80 65 36 195 -13 39 -22 71 -20 73 2 2 32 -10 67 -27 44 -20 79
-30 113 -30 l48 0 113 113 c125 126 169 198 205 341 29 115 27 130 -12 73 -20
-28 -38 -45 -47 -42 -31 12 -110 82 -111 98 0 10 12 34 26 53 21 27 29 32 40
23 12 -10 11 -17 -4 -44 l-19 -31 33 -23 c37 -26 47 -23 70 22 16 30 16 32 -9
52 -18 17 -22 26 -15 39 9 15 12 15 38 -4 16 -11 31 -30 34 -43 9 -39 -3 296
-14 368 -17 118 -29 153 -127 360 -141 300 -149 315 -267 494 -325 497 -696
901 -922 1006 -33 15 -67 31 -76 36 -10 5 -21 8 -25 7 -5 0 -24 -3 -43 -5z
m-10 -141 c52 -36 55 -40 81 -122 14 -47 29 -97 32 -111 l6 -25 -127 -11
c-152 -12 -176 -4 -193 62 -5 22 -14 53 -19 69 -15 43 -13 46 24 46 34 0 36
-2 53 -56 l17 -56 73 4 c41 3 75 7 78 10 3 2 -7 39 -21 82 l-26 77 -63 -6
c-55 -6 -63 -5 -67 11 -3 11 -9 27 -13 36 -6 14 1 17 47 21 29 2 55 4 58 5 3
0 30 -16 60 -36z m-681 -212 c16 -8 51 -76 51 -99 0 -9 -68 -31 -98 -31 -13 0
-35 18 -59 48 -21 26 -45 51 -53 56 -11 7 -1 13 40 22 73 15 98 16 119 4z
m1119 -217 l9 -63 -33 0 c-35 0 -39 6 -46 70 -3 23 -7 25 -67 28 l-64 3 6 -61
c4 -34 9 -66 13 -71 3 -5 25 -9 50 -9 31 0 44 -4 44 -14 0 -8 3 -21 6 -30 5
-14 -5 -16 -69 -16 -48 0 -78 4 -84 13 -11 14 -33 154 -33 209 l0 37 108 3
c132 4 146 -5 160 -99z m-854 86 c24 -11 39 -38 51 -89 6 -23 2 -27 -39 -38
-46 -12 -96 -3 -96 17 0 5 -15 32 -34 60 l-34 50 56 4 c32 2 60 4 64 5 4 1 18
-3 32 -9z m271 -172 c14 -12 29 -41 34 -65 9 -41 8 -42 -18 -48 -14 -3 -33 -8
-42 -10 -36 -10 -67 15 -95 73 -15 32 -29 60 -31 63 -2 3 26 6 62 7 55 1 69
-2 90 -20z m-620 -34 c10 -24 75 -216 75 -221 0 -2 -42 19 -92 46 -51 27 -123
62 -160 78 -37 15 -64 31 -60 35 8 9 202 78 218 78 7 1 15 -7 19 -16z m1401
-26 l41 -43 2 -102 2 -102 -120 3 c-76 2 -125 8 -134 16 -11 8 -16 36 -19 87
l-3 74 33 0 c31 0 32 -2 33 -40 1 -22 2 -46 3 -52 1 -16 126 -24 135 -10 3 6
4 40 3 76 l-4 66 -53 0 c-46 0 -53 3 -59 23 -12 44 -8 47 47 47 48 0 55 -3 93
-43z m-525 -136 c11 -14 19 -39 19 -62 0 -36 -2 -39 -35 -45 -60 -11 -84 1
-106 54 -11 26 -25 58 -33 72 l-13 26 75 -11 c58 -8 78 -15 93 -34z m-546 -23
c3 -7 16 -60 29 -118 l23 -105 79 5 c44 2 102 4 129 5 l50 0 12 -85 c6 -47 12
-103 12 -125 l1 -39 -37 36 c-86 81 -352 272 -486 347 -32 18 -55 36 -52 40 8
8 182 49 213 50 12 1 25 -5 27 -11z m1240 -118 c86 -11 103 -27 103 -100 0
-49 -1 -51 -27 -48 -23 3 -26 8 -29 44 -3 39 -5 42 -40 48 -72 12 -72 11 -72
-49 l0 -55 40 -6 c36 -6 40 -9 40 -36 0 -21 -4 -29 -14 -25 -7 3 -34 9 -60 12
-28 5 -49 14 -54 24 -4 9 -6 58 -4 109 4 105 -6 98 117 82z m-540 -31 c64 -12
85 -36 85 -99 l0 -48 -51 2 c-60 3 -76 17 -93 82 -8 27 -17 58 -22 68 -6 16
-4 18 12 12 10 -4 42 -12 69 -17z m-1145 -44 c14 -7 41 -30 60 -50 34 -35 35
-38 35 -115 0 -74 -2 -81 -30 -111 -36 -38 -98 -68 -141 -69 -44 0 -125 44
-152 84 -101 148 70 343 228 261z m1931 -159 c21 -23 28 -41 28 -71 0 -44 -13
-133 -20 -140 -3 -2 -47 3 -99 11 -103 16 -124 30 -115 74 3 14 6 40 7 58 2
33 18 41 47 23 10 -7 12 -20 7 -50 l-6 -40 37 -6 c21 -3 47 -8 59 -10 19 -4
22 1 28 57 3 34 4 63 2 65 -2 3 -23 7 -45 10 -37 5 -41 8 -41 33 0 27 1 28 41
23 30 -4 50 -15 70 -37z m-589 -16 c77 -21 88 -33 88 -99 l0 -59 -42 5 c-62 8
-86 26 -93 70 -3 21 -10 53 -15 71 -7 27 -6 33 5 28 8 -3 33 -10 57 -16z
m-298 -167 c8 -101 8 -161 -1 -165 -5 -2 -64 52 -133 120 l-125 122 126 0 126
0 7 -77z m-638 37 c35 -13 86 -62 100 -97 18 -42 18 -117 0 -151 -30 -57 -103
-102 -168 -102 -17 0 -52 10 -76 21 -85 41 -125 146 -88 232 16 40 77 95 114
103 15 3 32 7 37 9 11 3 49 -4 81 -15z m1201 -157 c10 -16 12 -35 7 -69 l-7
-46 -45 6 c-59 8 -82 29 -82 75 0 20 -4 52 -9 72 l-8 35 65 -25 c36 -14 71
-36 79 -48z m431 36 c92 -30 95 -34 88 -93 -6 -58 -8 -60 -36 -51 -19 6 -21
12 -15 45 6 37 6 37 -37 48 -23 6 -44 9 -47 7 -2 -3 -7 -25 -11 -49 -6 -44 -6
-45 22 -52 31 -6 44 -24 35 -48 -5 -12 -15 -11 -62 7 l-57 20 7 46 c13 86 27
141 36 141 6 0 40 -10 77 -21z m-815 -109 c38 -5 71 -11 74 -14 7 -7 -18 -246
-26 -246 -3 0 -26 29 -51 63 -25 34 -73 94 -107 134 -35 40 -63 74 -63 77 0 5
55 1 173 -14z m-429 -98 c56 -38 78 -73 84 -131 6 -66 -2 -93 -39 -135 -62
-71 -159 -83 -239 -30 -72 48 -98 139 -61 219 24 53 59 84 112 100 55 16 94
10 143 -23z m1393 -2 c31 -11 63 -55 63 -87 0 -36 -42 -144 -54 -139 -6 3 -44
15 -83 28 -84 25 -91 36 -72 109 11 43 15 48 33 43 29 -9 29 -8 17 -50 -6 -21
-9 -39 -8 -39 1 -1 23 -9 49 -18 l47 -15 10 31 c21 66 18 79 -16 91 -40 14
-47 21 -40 41 7 18 14 18 54 5z m-418 -91 c12 -22 12 -33 2 -72 l-13 -45 -46
13 c-24 8 -50 19 -56 25 -6 6 -13 46 -16 89 l-5 78 60 -31 c33 -17 66 -43 74
-57z m-361 -106 c59 -15 108 -28 110 -29 2 -1 -8 -50 -22 -109 -14 -59 -26
-114 -26 -124 0 -14 22 -24 98 -46 154 -45 145 -30 106 -164 -18 -62 -35 -115
-37 -117 -2 -2 -26 38 -52 88 -55 106 -233 412 -276 475 -45 64 -48 63 99 26z
m441 -113 c33 -22 63 -49 66 -61 4 -12 0 -40 -10 -65 -19 -49 -27 -50 -90 -15
-29 17 -30 19 -30 99 -1 45 0 82 1 82 2 0 30 -18 63 -40z m431 -7 c54 -42 61
-66 33 -113 -13 -23 -20 -27 -35 -19 -17 9 -17 12 -3 40 15 29 15 31 -7 49
-33 28 -46 25 -65 -15 -16 -33 -16 -35 7 -53 23 -19 21 -42 -4 -42 -7 0 -25
13 -41 30 -25 26 -27 33 -17 54 20 45 62 106 72 106 6 0 33 -17 60 -37z
m-1166 -18 c113 -54 149 -195 73 -282 -112 -128 -317 -53 -317 116 0 59 15 93
58 134 48 46 127 60 186 32z m894 -289 c27 -24 28 -51 4 -103 l-17 -40 -42 18
c-59 25 -68 47 -53 130 l13 68 36 -27 c20 -14 46 -35 59 -46z m-589 -134 c99
-73 94 -209 -9 -263 -89 -48 -207 8 -226 107 -8 42 16 111 50 143 47 44 135
50 185 13z m340 -81 c56 -21 105 -42 108 -45 7 -7 -26 -108 -61 -190 l-22 -49
-29 69 c-15 38 -48 109 -72 158 -24 48 -43 90 -43 92 0 8 19 3 119 -35z m357
-107 c6 -22 -32 -114 -45 -114 -3 1 -24 13 -46 28 -48 33 -53 57 -30 136 l16
56 50 -42 c27 -23 52 -52 55 -64z m-519 -205 c52 -25 73 -61 73 -123 0 -38 -5
-51 -34 -79 -18 -19 -47 -37 -64 -40 -68 -14 -142 35 -157 103 -13 61 30 131
91 150 42 12 44 12 91 -11z"/>
<path d="M994 5016 c-72 -32 -107 -146 -65 -213 29 -47 73 -66 138 -61 79 7
133 65 133 143 0 54 -23 88 -78 118 -55 30 -82 33 -128 13z m111 -30 c82 -35
85 -159 5 -201 -50 -26 -97 -20 -136 19 -29 29 -34 41 -34 79 0 50 18 78 65
102 37 19 56 19 100 1z"/>
<path d="M990 4928 c-27 -45 -25 -64 9 -99 33 -33 50 -35 91 -14 83 43 55 145
-40 145 -35 0 -43 -4 -60 -32z"/>
<path d="M1423 4713 c-30 -6 -80 -65 -92 -110 -43 -154 166 -243 261 -111 17
25 23 46 22 85 0 61 -22 90 -89 123 -40 20 -57 22 -102 13z m128 -59 c76 -73
23 -194 -86 -194 -53 0 -107 53 -109 106 -2 105 120 160 195 88z"/>
<path d="M1411 4624 c-28 -36 -27 -79 4 -109 28 -29 54 -31 96 -10 34 18 49
49 42 88 -12 60 -104 79 -142 31z"/>
<path d="M1785 4403 c-53 -13 -95 -80 -95 -153 0 -45 4 -54 39 -89 43 -43 75
-53 134 -39 78 17 128 94 113 172 -14 73 -110 128 -191 109z m101 -39 c112
-53 66 -214 -61 -214 -26 0 -45 9 -71 33 -29 27 -35 39 -36 74 0 52 22 90 65
108 42 19 62 18 103 -1z"/>
<path d="M1771 4314 c-29 -36 -27 -76 5 -108 30 -30 53 -32 94 -11 38 20 53
49 45 86 -14 61 -105 82 -144 33z"/>
<path d="M2089 4023 c-85 -72 -75 -197 21 -245 96 -49 210 21 210 128 0 59
-14 85 -64 117 -59 37 -122 37 -167 0z m144 -14 c39 -20 57 -51 57 -101 0 -38
-5 -52 -29 -76 -32 -32 -88 -46 -125 -32 -36 13 -76 68 -76 103 0 39 33 95 63
107 31 12 84 12 110 -1z"/>
<path d="M2137 3979 c-23 -14 -50 -75 -41 -92 33 -58 77 -71 132 -37 26 16 32
26 32 54 0 18 -8 43 -17 55 -21 25 -80 36 -106 20z"/>
<path d="M2414 3636 c-42 -18 -79 -93 -70 -141 10 -52 65 -95 123 -95 39 0 50
5 84 39 33 33 39 45 39 83 0 53 -19 82 -70 108 -46 23 -64 24 -106 6z m119
-36 c52 -41 40 -138 -19 -160 -75 -29 -144 11 -144 84 0 80 99 126 163 76z"/>
<path d="M2416 3568 c-53 -75 36 -149 103 -87 45 42 11 109 -53 109 -25 0 -39
-7 -50 -22z"/>
<path d="M2601 3215 c-44 -50 -43 -105 0 -146 61 -57 160 -24 175 57 8 46 -7
79 -48 104 -51 31 -90 26 -127 -15z m131 -15 c25 -26 29 -36 24 -63 -8 -40
-32 -63 -72 -72 -25 -5 -38 -1 -63 20 -43 37 -43 83 0 119 41 34 73 33 111 -4z"/>
<path d="M2217 6101 c90 -42 175 -111 339 -275 219 -220 454 -516 610 -769
l44 -71 0 47 c0 144 -43 354 -91 450 -38 74 -134 199 -239 309 -190 201 -390
303 -630 323 l-75 6 42 -20z"/>
<path d="M3353 1559 l-32 -69 70 -36 c38 -20 69 -40 69 -43 0 -4 -42 -18 -92
-31 -128 -32 -128 -32 -72 -65 27 -16 59 -35 70 -42 21 -13 24 -10 64 59 l43
73 -33 98 c-47 138 -49 139 -87 56z"/>
<path d="M3515 1493 c-16 -36 -32 -70 -33 -75 -3 -7 122 34 195 64 l33 14 -75
32 c-41 18 -78 32 -82 32 -4 0 -21 -30 -38 -67z"/>
<path d="M3482 1388 c2 -7 14 -57 28 -110 13 -54 27 -98 30 -98 4 0 12 10 18
23 6 12 24 45 41 73 l29 51 -67 36 c-75 40 -84 43 -79 25z"/>
<path d="M3348 1198 c-18 -29 -37 -59 -42 -67 -10 -16 30 -11 154 18 l75 17
-65 42 c-36 23 -70 42 -77 42 -6 0 -26 -24 -45 -52z"/>
<path d="M3162 1094 c-45 -7 -87 -14 -93 -16 -11 -4 86 -83 114 -94 8 -3 31
20 57 56 24 33 47 60 51 60 3 0 12 -37 18 -82 7 -46 15 -98 18 -116 l5 -33 49
67 c27 36 49 70 49 75 0 17 -135 99 -160 98 -14 -1 -62 -7 -108 -15z"/>
<path d="M2996 1013 l-48 -57 64 -58 63 -57 -50 -2 c-27 -1 -83 -3 -123 -3
-40 -1 -76 -5 -80 -11 -4 -5 -28 -29 -53 -52 l-47 -41 50 -62 c38 -46 53 -59
59 -49 5 8 9 59 9 114 l0 99 60 -59 60 -60 61 61 60 60 -12 110 c-6 60 -15
112 -18 116 -4 4 -28 -18 -55 -49z"/>
<path d="M3137 909 c-27 -33 -47 -63 -44 -65 6 -7 227 18 227 25 -1 7 -124
101 -131 100 -2 0 -26 -27 -52 -60z"/>
<path d="M3087 715 c3 -64 2 -115 -3 -115 -4 0 -34 26 -66 57 l-57 57 -59 -57
c-33 -31 -57 -59 -54 -62 3 -3 58 -5 122 -5 l117 0 63 66 63 66 -59 53 c-32
30 -62 54 -66 55 -4 0 -4 -52 -1 -115z"/>
<path d="M2535 605 c-33 -19 -60 -38 -60 -42 0 -28 62 -143 84 -156 30 -17
209 -62 217 -54 3 2 -13 33 -36 68 -22 34 -39 67 -37 72 1 5 31 29 65 54 l62
44 0 -28 c0 -15 -9 -68 -19 -118 -10 -49 -18 -91 -17 -92 2 -3 146 102 146
107 0 3 -25 36 -56 73 -43 52 -62 67 -82 67 -23 0 -69 9 -182 34 -17 3 -43 -5
-85 -29z"/>
<path d="M2248 486 c-37 -12 -70 -24 -73 -27 -2 -3 5 -38 16 -78 11 -40 18
-75 16 -78 -3 -3 -47 23 -98 56 -51 34 -93 60 -94 58 -2 -1 5 -37 13 -79 19
-88 18 -88 112 -63 30 8 58 15 63 15 10 0 -18 -53 -65 -122 -61 -90 -61 -89
34 -66 46 12 84 22 85 23 2 0 -8 39 -20 84 l-23 83 55 106 54 106 27 -75 c32
-85 38 -87 130 -47 l55 25 -109 51 c-60 29 -109 52 -110 51 -1 -1 -31 -11 -68
-23z"/>
<path d="M1907 407 c-59 -10 -59 -10 -53 -41 3 -17 8 -56 12 -86 l7 -55 -39
29 c-21 16 -62 49 -91 73 -45 38 -57 43 -100 43 -26 0 -65 -3 -87 -7 l-39 -6
6 -79 c4 -43 10 -85 14 -93 9 -16 176 -155 181 -151 1 2 -2 39 -7 82 -5 43 -8
80 -6 82 2 2 39 8 82 14 43 6 83 14 90 20 13 11 123 172 123 182 0 7 -18 6
-93 -7z"/>
<path d="M2525 365 c-41 -99 -79 -175 -85 -175 -3 0 -17 30 -30 68 -12 37 -26
70 -29 74 -7 8 -151 -33 -151 -43 0 -3 46 -30 103 -59 l103 -54 82 33 c45 18
84 37 87 41 3 5 -10 41 -29 82 l-34 73 -17 -40z"/>
<path d="M845 307 c-4 -29 -5 -66 -3 -82 l3 -29 65 60 c108 99 100 99 100 4
l0 -83 -85 5 -85 6 20 -27 c11 -14 47 -55 79 -91 l60 -65 1 35 c0 19 3 59 6
88 l7 52 79 0 80 0 -72 80 c-78 87 -104 100 -197 100 l-52 0 -6 -53z"/>
<path d="M1352 267 l6 -87 -47 -1 c-25 -1 -50 -2 -56 -4 -5 -1 -23 -3 -40 -4
-29 -2 -28 -4 55 -82 l85 -80 3 86 3 85 74 0 c41 0 76 3 78 8 3 4 -33 43 -81
87 l-85 80 5 -88z"/>
<path d="M1948 237 c-32 -6 -58 -14 -58 -18 0 -8 183 -139 188 -135 1 2 -6 39
-15 84 -19 92 -12 87 -115 69z"/>
<path d="M1798 123 c-37 -48 -66 -88 -64 -90 4 -4 157 15 162 20 5 5 -19 157
-25 157 -3 0 -36 -39 -73 -87z"/>
<path d="M795 153 c-16 -13 -58 -46 -93 -73 l-63 -48 68 -7 c37 -3 78 -8 90
-11 20 -4 22 1 28 59 4 35 5 73 3 84 -3 21 -3 21 -33 -4z"/>
<path d="M1446 95 c-43 -47 -77 -87 -75 -88 2 -1 41 -1 87 1 l82 4 -1 31 c-1
18 -4 56 -7 85 l-7 53 -79 -86z"/>
<path d="M1093 89 c-46 -45 -83 -83 -83 -85 0 -2 38 -4 85 -4 l85 0 0 85 c0
47 -1 85 -2 85 -2 0 -40 -37 -85 -81z"/>
</g>
</svg>
