<svg xmlns="http://www.w3.org/2000/svg" version="1.1" xmlns:xlink="http://www.w3.org/1999/xlink" xmlns:svgjs="http://svgjs.dev/svgjs" width="1440" height="560" preserveAspectRatio="none" viewBox="0 0 1440 560"><g mask="url(&quot;#SvgjsMask1004&quot;)" fill="none"><rect width="1440" height="560" x="0" y="0" fill="rgba(136, 19, 55, 1)"></rect><path d="M0,403.899C78.822,406.745,161.341,396.803,225.79,351.336C289.139,306.645,311.325,227.264,347.543,158.717C386.2,85.553,447.527,18.701,445.245,-64.017C442.883,-149.633,402.96,-238.085,335.154,-290.412C270.176,-340.557,179.227,-323.954,97.577,-332.318C31.273,-339.11,-34.559,-354.26,-98.31,-334.813C-161.671,-315.485,-213.291,-272.425,-258.25,-223.775C-304.39,-173.847,-348.978,-118.845,-359.903,-51.746C-370.918,15.906,-342.304,81.165,-318.357,145.389C-292.678,214.259,-272.608,289.067,-215.549,335.4C-155.814,383.906,-76.899,401.122,0,403.899" fill="#6d0f2c"></path><path d="M1440 1070.196C1537.843 1068.004 1634.909 1044.271 1716.179 989.7429999999999 1796.5140000000001 935.8430000000001 1844.181 850.466 1892.451 766.6279999999999 1945.423 674.623 2032.973 581.759 2010.859 477.923 1988.667 373.722 1867.785 328.047 1784.815 261.216 1716.661 206.31900000000002 1646.413 161.957 1568.681 121.75299999999999 1472.257 71.88099999999997 1378.897-33.418000000000006 1274.817-2.562000000000012 1170.679 28.311000000000035 1171.205 183.55399999999997 1095.969 261.895 1014.4159999999999 346.813 864.38 361.769 820.14 470.878 774.994 582.222 805.296 718.975 869.451 820.5609999999999 931.057 918.111 1050.051 956.054 1155.75 1002.3009999999999 1246.841 1042.157 1340.596 1072.423 1440 1070.196" fill="#a31742"></path></g><defs><mask id="SvgjsMask1004"><rect width="1440" height="560" fill="#ffffff"></rect></mask></defs></svg>